<svg xmlns="http://www.w3.org/2000/svg" width="14" height="19.998" viewBox="0 0 14 19.998">
  <g id="Group_185" data-name="Group 185" transform="translate(-365.137 -85.455)">
    <g id="Path_34" data-name="Path 34" transform="translate(366 86.895)" fill="none">
      <path d="M5.822-.154c3.021.005,4.608,2,6.143,5.665.69,1.644-2.2,2.677,1.171,6.043a7.476,7.476,0,0,1-.493,2.934H-.514a24.375,24.375,0,0,1-.349-2.934C2.032,8.659-.926,7.481-.118,5.49,1.367,1.829,2.8-.16,5.822-.154Z" stroke="none"/>
      <path d="M 5.810350894927979 1.84549617767334 C 4.258429050445557 1.84549617767334 3.252942085266113 2.502435684204102 1.737630844116211 6.236063957214355 C 1.749185562133789 6.35275936126709 1.864909172058105 6.654994010925293 1.942641258239746 6.858006000518799 C 2.35792064666748 7.942630290985107 3.098648071289062 9.876824378967285 1.19999885559082 12.24743843078613 C 1.20786190032959 12.33002758026123 1.215868949890137 12.41032600402832 1.22393798828125 12.4880256652832 L 11.08825397491455 12.4880256652832 C 11.09531402587891 12.4297513961792 11.10181140899658 12.36961078643799 11.10760402679443 12.30773448944092 C 9.029143333435059 9.896676063537598 9.301708221435547 8.048611640930176 9.935840606689453 6.406136035919189 C 9.971806526184082 6.312978744506836 10.01636600494385 6.197561264038086 10.04684066772461 6.108658790588379 C 8.520195960998535 2.533760070800781 7.377139091491699 1.848133087158203 5.816720962524414 1.84549617767334 L 5.810350894927979 1.84549617767334 M 5.810353755950928 -0.1545038223266602 C 5.814220428466797 -0.1545038223266602 5.818019390106201 -0.1545000076293945 5.821891307830811 -0.1544942855834961 C 8.842731475830078 -0.1494035720825195 10.42949104309082 1.849696159362793 11.96535110473633 5.510326385498047 C 12.65495109558105 7.153945922851562 9.770291328430176 8.187175750732422 13.13682079315186 11.55370616912842 C 13.15850067138672 13.35445594787598 12.64370155334473 14.4880256652832 12.64370155334473 14.4880256652832 L -0.5135288238525391 14.4880256652832 C -0.5135288238525391 14.4880256652832 -0.7400684356689453 13.37818622589111 -0.862548828125 11.55370616912842 C 2.032251358032227 8.658895492553711 -0.9258384704589844 7.481366157531738 -0.1180086135864258 5.489986419677734 C 1.365057945251465 1.834048271179199 2.797445297241211 -0.1545038223266602 5.810353755950928 -0.1545038223266602 Z" stroke="none" fill="#000"/>
    </g>
    <g id="Rectangle_125" data-name="Rectangle 125" transform="translate(369.712 102.119)" fill="none" stroke="#000" stroke-width="2">
      <path d="M0,0H5.333a0,0,0,0,1,0,0V.667A2.666,2.666,0,0,1,2.666,3.333h0A2.666,2.666,0,0,1,0,.667V0A0,0,0,0,1,0,0Z" stroke="none"/>
      <path d="M1.267,1h2.8a.267.267,0,0,1,.267.267v0A1.066,1.066,0,0,1,3.266,2.333h-1.2A1.066,1.066,0,0,1,1,1.267v0A.267.267,0,0,1,1.267,1Z" fill="none"/>
    </g>
    <path id="Rectangle_126" data-name="Rectangle 126" d="M1.333,0h0A1.333,1.333,0,0,1,2.666,1.333V2.666a0,0,0,0,1,0,0H0a0,0,0,0,1,0,0V1.333A1.333,1.333,0,0,1,1.333,0Z" transform="translate(370.379 85.455)"/>
  </g>
</svg>
