<svg xmlns="http://www.w3.org/2000/svg" width="20" height="18.182" viewBox="0 0 20 18.182">
  <path id="ic_translate_24px" d="M11.791,13.882,9.482,11.6l.027-.027a15.926,15.926,0,0,0,3.373-5.936h2.664V3.818H9.182V2H7.364V3.818H1V5.627H11.155A14.284,14.284,0,0,1,8.273,10.5a14.223,14.223,0,0,1-2.1-3.045H4.355A15.965,15.965,0,0,0,7.064,11.6L2.436,16.164l1.291,1.291,4.545-4.545L11.1,15.736l.691-1.855Zm5.118-4.609H15.091L11,20.182h1.818l1.018-2.727h4.318l1.027,2.727H21Zm-2.382,6.364L16,11.7l1.473,3.936H14.527Z" transform="translate(-1 -2)"/>
</svg>
