<svg xmlns="http://www.w3.org/2000/svg" width="24" height="24" viewBox="0 0 24 24">
  <g id="ic_games_24px" fill="none">
    <path d="M15,7.5V2H9V7.5s1.5,2.289,3,2.289S15,7.5,15,7.5ZM7.5,9H2v6H7.5s2.165-1.5,2.165-3S7.5,9,7.5,9ZM9,16.5V22h6V16.5s-1.5-2.186-3-2.186S9,16.5,9,16.5ZM16.5,9s-2.271,1.5-2.271,3S16.5,15,16.5,15H22V9Z" stroke="none"/>
    <path d="M 9 2 L 9 7.5 C 9 7.5 10.5 9.789059638977051 12 9.789059638977051 C 13.5 9.789059638977051 15 7.5 15 7.5 L 15 2 L 9 2 M 2 9 L 2 15 L 7.5 15 C 7.5 15 9.66471004486084 13.5 9.66471004486084 12 C 9.66471004486084 10.5 7.5 9 7.5 9 L 2 9 M 16.5 9 C 16.5 9 14.22852039337158 10.5 14.22852039337158 12 C 14.22852039337158 13.5 16.5 15 16.5 15 L 22 15 L 22 9 L 16.5 9 M 12 14.31412982940674 C 10.5 14.31412982940674 9 16.5 9 16.5 L 9 22 L 15 22 L 15 16.5 C 15 16.5 13.5 14.31412982940674 12 14.31412982940674 M 7 0 L 17 0 L 17 7 L 24 7 L 24 17 L 17 17 L 17 24 L 7 24 L 7 17 L 0 17 L 0 7 L 7 7 L 7 0 Z M 12 11.78905963897705 C 11.88570499420166 11.78905963897705 11.77152442932129 11.7835521697998 11.65734767913818 11.77253818511963 C 11.66220569610596 11.84776496887207 11.66471004486084 11.92364120483398 11.66471004486084 12 C 11.66471004486084 12.11157894134521 11.65937232971191 12.2219762802124 11.64913845062256 12.33111000061035 C 11.84714698791504 12.31195163726807 12.04507350921631 12.30900192260742 12.24308776855469 12.32228374481201 C 12.23337841033936 12.21489143371582 12.22852039337158 12.10747528076172 12.22852039337158 12 C 12.22852039337158 11.9271068572998 12.23076248168945 11.85413265228271 12.23523044586182 11.78127384185791 C 12.15687847137451 11.78645896911621 12.07840251922607 11.78905963897705 12 11.78905963897705 Z" stroke="none" fill="#000"/>
  </g>
</svg>
