<svg xmlns="http://www.w3.org/2000/svg" width="19.999" height="19.999" viewBox="0 0 19.999 19.999">
  <g id="Group_138" data-name="Group 138" transform="translate(-358.858 -69)">
    <g id="Path_26" data-name="Path 26" transform="translate(359 69)" fill="none">
      <path d="M9.914,0a9.846,9.846,0,1,1,0,19.69A10.071,10.071,0,0,1,5.12,18.457c-6.7,3.828-5.807-.265-3.814-3.682A9.517,9.517,0,0,1-.029,9.845,9.894,9.894,0,0,1,9.914,0Z" stroke="none"/>
      <path d="M 9.91368579864502 1.999994277954102 C 5.534026145935059 1.999994277954102 1.970914840698242 5.519285202026367 1.970914840698242 9.845085144042969 C 1.970914840698242 11.25006484985352 2.347556114196777 12.66227531433105 3.004255294799805 13.71960544586182 L 3.639425277709961 14.74225521087646 L 3.033035278320312 15.78223514556885 C 2.561656951904297 16.59066772460938 2.270957946777344 17.23943519592285 2.096527099609375 17.72457504272461 C 2.569231986999512 17.54059982299805 3.230093955993652 17.2334098815918 4.127145767211914 16.72058486938477 L 5.078315734863281 16.17682456970215 L 6.048605918884277 16.68566513061523 C 7.355415344238281 17.37098503112793 8.583575248718262 17.6901741027832 9.91368579864502 17.6901741027832 C 14.29333591461182 17.6901741027832 17.8564453125 14.17088508605957 17.8564453125 9.845085144042969 C 17.8564453125 5.519285202026367 14.29333591461182 1.999994277954102 9.91368579864502 1.999994277954102 M 9.91368579864502 -5.7220458984375e-06 C 15.40491580963135 -5.7220458984375e-06 19.8564453125 4.407794952392578 19.8564453125 9.845085144042969 C 19.8564453125 15.28237533569336 15.40491580963135 19.6901741027832 9.91368579864502 19.6901741027832 C 8.268876075744629 19.6901741027832 6.717355728149414 19.29470443725586 5.119745254516602 18.45688438415527 C -1.576297760009766 22.28486633300781 -0.6868839263916016 18.19147491455078 1.305286407470703 14.77482509613037 C 0.5038356781005859 13.4844446182251 -0.02908515930175781 11.72639465332031 -0.02908515930175781 9.845085144042969 C -0.02908515930175781 4.407794952392578 4.422445297241211 -5.7220458984375e-06 9.91368579864502 -5.7220458984375e-06 Z" stroke="none" fill="#000"/>
    </g>
    <text id="_" data-name="?" transform="translate(365.857 82)" font-size="10" font-family="Inter-ExtraBold, Inter" font-weight="800" letter-spacing="-0.02em"><tspan x="0" y="0">?</tspan></text>
  </g>
</svg>
