<svg xmlns="http://www.w3.org/2000/svg" width="20" height="20" viewBox="0 0 20 20">
  <path id="ic_select_all_24px" d="M3,5.222H5.222V3A2.229,2.229,0,0,0,3,5.222Zm0,8.889H5.222V11.889H3ZM7.444,23H9.667V20.778H7.444ZM3,9.667H5.222V7.444H3ZM14.111,3H11.889V5.222h2.222Zm6.667,0V5.222H23A2.229,2.229,0,0,0,20.778,3ZM5.222,23V20.778H3A2.229,2.229,0,0,0,5.222,23ZM3,18.556H5.222V16.333H3ZM9.667,3H7.444V5.222H9.667Zm2.222,20h2.222V20.778H11.889Zm8.889-8.889H23V11.889H20.778Zm0,8.889A2.229,2.229,0,0,0,23,20.778H20.778Zm0-13.333H23V7.444H20.778Zm0,8.889H23V16.333H20.778ZM16.333,23h2.222V20.778H16.333Zm0-17.778h2.222V3H16.333ZM7.444,18.556H18.556V7.444H7.444ZM9.667,9.667h6.667v6.667H9.667Z" transform="translate(-3 -3)"/>
</svg>
